<svg xmlns="http://www.w3.org/2000/svg" width="31.5" height="36" viewBox="0 0 31.5 36">
  <path id="Icon_awesome-user-astronaut" data-name="Icon awesome-user-astronaut" d="M4.5,15.75h.949a11.235,11.235,0,0,0,20.6,0H27a1.128,1.128,0,0,0,1.125-1.125V7.875A1.128,1.128,0,0,0,27,6.75h-.949a11.235,11.235,0,0,0-20.6,0H4.5A1.128,1.128,0,0,0,3.375,7.875v6.75A1.128,1.128,0,0,0,4.5,15.75ZM7.313,9.563A3.133,3.133,0,0,1,10.688,6.75H20.813a3.133,3.133,0,0,1,3.375,2.813V11.25A6.752,6.752,0,0,1,17.438,18H14.063a6.752,6.752,0,0,1-6.75-6.75Zm5.063,5.063.844-2.531,2.531-.844-2.531-.844-.844-2.531-.844,2.531L9,11.25l2.531.844ZM23.034,22.6a13.407,13.407,0,0,1-14.569,0A9.423,9.423,0,0,0,0,31.95v.675A3.376,3.376,0,0,0,3.375,36H9V31.5a2.248,2.248,0,0,1,2.25-2.25h9A2.248,2.248,0,0,1,22.5,31.5V36h5.625A3.376,3.376,0,0,0,31.5,32.625V31.95A9.423,9.423,0,0,0,23.034,22.6Zm-3.909,8.9a1.125,1.125,0,1,0,1.125,1.125A1.128,1.128,0,0,0,19.125,31.5Zm-6.75,0a1.128,1.128,0,0,0-1.125,1.125V36H13.5V32.625A1.128,1.128,0,0,0,12.375,31.5Z" fill="#c5c5c5"/>
</svg>